<svg xmlns="http://www.w3.org/2000/svg" viewBox="0 0 64 64" role="img" aria-label="Proof of Talk">
  <defs>
    <linearGradient id="g" x1="0" y1="0" x2="1" y2="1">
      <stop offset="0%" stop-color="#f0d29d" />
      <stop offset="100%" stop-color="#d7b375" />
    </linearGradient>
  </defs>
  <rect width="64" height="64" rx="14" fill="#0b1119" />
  <circle cx="14" cy="32" r="11" fill="url(#g)" />
  <path d="M26 18h15c6.5 0 10 3.5 10 8.8 0 5.5-3.6 9.1-10.1 9.1h-6.2V46H26V18zm8.7 6.5v7.1h5.5c1.8 0 3-.4 3.8-1.2.7-.8 1.1-1.8 1.1-3s-.4-2.1-1.1-2.8c-.8-.7-2-1.1-3.8-1.1h-5.5z" fill="#ffffff"/>
  <rect x="26" y="48.5" width="26" height="2.5" rx="1.25" fill="url(#g)" />
</svg>
