<svg width="141" height="23" viewBox="0 0 141 23" fill="none" xmlns="http://www.w3.org/2000/svg">
<path d="M42.3757 22.9333C41.5462 22.7475 40.7237 22.5503 39.9998 22.0686C38.7784 21.2549 38.1936 20.059 37.9805 18.6667C37.7648 17.2577 37.7639 15.8452 38.1267 14.4503C38.6348 12.4953 40.175 11.1576 42.1943 10.8961C43.2704 10.7569 44.3281 10.7887 45.3646 11.1224C47.0342 11.6605 48.083 12.7789 48.5031 14.4829C48.9179 16.1622 48.9276 17.8433 48.4555 19.5051C47.8902 21.497 46.4706 22.5291 44.476 22.8611C44.3615 22.8805 44.2488 22.9096 44.1343 22.9342H42.374L42.3757 22.9333ZM41.2934 16.9724C41.3533 17.7165 41.3022 18.5822 41.437 19.4373C41.5655 20.251 41.7293 21.0532 42.2242 21.7375C42.8741 22.6348 43.9045 22.5925 44.4945 21.6556C44.7948 21.1783 44.9727 20.6534 45.0775 20.1048C45.4341 18.2519 45.4139 16.3859 45.2219 14.5199C45.1321 13.6445 44.941 12.7859 44.4302 12.0391C43.8182 11.1444 42.7878 11.1506 42.1881 12.0506C41.9592 12.394 41.8121 12.7753 41.6924 13.169C41.3269 14.3746 41.3278 15.6189 41.2934 16.9733V16.9724Z" fill="white"/>
<path d="M76.1727 22.9375C75.4013 22.7622 74.6316 22.587 73.9474 22.1608C72.8854 21.4994 72.2258 20.5492 71.9316 19.3481C71.5327 17.7171 71.5266 16.0783 71.9325 14.4483C72.4222 12.4854 74.0249 11.131 76.0486 10.8923C77.0965 10.769 78.1251 10.7998 79.1334 11.1142C80.8092 11.6364 81.8713 12.7522 82.3001 14.4491C82.7351 16.169 82.7466 17.8977 82.2314 19.5964C81.6432 21.5373 80.2368 22.5482 78.2748 22.8635C78.1603 22.882 78.0467 22.9119 77.9331 22.9357H76.1727V22.9375ZM79.144 16.774C79.1757 16.1532 79.1255 15.3941 79.0409 14.6394C78.9449 13.7808 78.7811 12.9362 78.3276 12.1745C77.6953 11.1125 76.5452 11.1063 75.9138 12.1718C75.6734 12.5778 75.5114 13.019 75.4145 13.4778C74.9804 15.5323 75.0376 17.6 75.2859 19.6686C75.3758 20.4145 75.5854 21.1296 76.0371 21.7513C76.665 22.6134 77.6539 22.602 78.2554 21.7213C78.5134 21.3436 78.6816 20.9235 78.7935 20.4805C79.0902 19.3093 79.1554 18.1161 79.144 16.7749V16.774Z" fill="white"/>
<path d="M53.907 22.9374C53.059 22.763 52.2206 22.5658 51.4862 22.07C50.4629 21.3787 49.85 20.41 49.5788 19.2265C49.2142 17.6369 49.2019 16.043 49.614 14.4579C50.1309 12.4685 51.6747 11.145 53.7203 10.8966C54.7956 10.7663 55.8497 10.7954 56.888 11.1397C58.577 11.6998 59.6082 12.8516 60.0098 14.5688C60.3823 16.1592 60.3964 17.7567 59.9886 19.3392C59.4964 21.2519 58.2415 22.3905 56.3076 22.7939C56.0936 22.8388 55.8805 22.889 55.6674 22.9374H53.907ZM56.8122 16.9104C56.7999 16.0782 56.8122 15.2451 56.6969 14.4174C56.5841 13.6169 56.423 12.8314 55.9836 12.1339C55.3345 11.1045 54.202 11.1256 53.5935 12.1788C53.3355 12.6262 53.1594 13.1096 53.0625 13.6125C52.6627 15.6996 52.6856 17.7946 53.0018 19.8896C53.1101 20.6055 53.3426 21.2836 53.7978 21.8613C54.3077 22.5085 55.0703 22.5693 55.6771 22.0136C56.0804 21.6446 56.2742 21.1533 56.4256 20.6451C56.7884 19.4255 56.8201 18.1697 56.8113 16.9104H56.8122Z" fill="white"/>
<path d="M0.892029 9.34264C0.892029 6.56515 0.892029 3.78766 0.892029 1.01017C0.892909 0.450975 0.897313 0.433362 1.45475 0.459781C5.37353 0.647354 9.01579 3.46888 9.82684 7.66857C10.8308 12.8651 7.13389 17.7306 1.84486 18.2361C1.20964 18.2971 0.892029 18.0077 0.892029 17.3678C0.892029 14.6924 0.892029 12.018 0.892029 9.34264Z" fill="white"/>
<path d="M19.0729 6.95476C20.444 7.00407 21.8689 6.84292 23.2858 7.03313C24.2342 7.16082 25.1633 7.36865 25.9937 7.87677C28.116 9.17481 28.6435 11.9083 27.1517 14.0015C26.1901 15.3515 24.7828 15.9574 23.1951 16.2031C22.3691 16.3308 21.5325 16.3633 20.6976 16.3563C20.3454 16.3537 20.2001 16.4602 20.2062 16.8318C20.2247 18.0445 20.2062 19.258 20.2203 20.4715C20.2327 21.5564 20.5946 21.9298 21.6892 22.0249C21.8935 22.0425 22.0996 22.0363 22.3048 22.0478C22.4835 22.0575 22.5646 22.164 22.5628 22.3366C22.561 22.511 22.4783 22.6096 22.296 22.6105C22.1929 22.6105 22.0908 22.6131 21.9877 22.6131C19.832 22.6131 17.6762 22.6131 15.5204 22.6131C15.4033 22.6131 15.2862 22.6131 15.1682 22.6096C15.037 22.6052 14.9427 22.5515 14.926 22.4088C14.9093 22.2609 14.9516 22.1411 15.1101 22.1085C15.2818 22.0733 15.457 22.0548 15.6305 22.0293C16.1915 21.9465 16.3967 21.7633 16.5006 21.2077C16.5455 20.9655 16.5649 20.7154 16.5657 20.4679C16.5693 16.6672 16.5684 12.8673 16.5675 9.06649C16.5675 8.92031 16.5675 8.77325 16.5552 8.62794C16.4882 7.84595 16.2522 7.60554 15.4729 7.51572C15.3566 7.50251 15.2413 7.48137 15.1268 7.45759C14.9709 7.42501 14.9119 7.31845 14.9243 7.16787C14.9375 6.99967 15.0493 6.95035 15.1973 6.95035C15.5636 6.95124 15.9308 6.95564 16.2971 6.95564C17.206 6.95564 18.1156 6.95564 19.0738 6.95564L19.0729 6.95476ZM20.2168 12.0597C20.2168 13.1702 20.2168 14.2807 20.2168 15.3911C20.2168 15.5805 20.1939 15.7892 20.481 15.8015C22.5637 15.8869 23.5676 15.3401 24.0308 13.415C24.3108 12.2482 24.2923 11.0638 24.096 9.88988C23.8221 8.24928 23.181 7.63636 21.6452 7.45759C20.7822 7.3572 20.3383 7.69889 20.2371 8.55397C20.215 8.74154 20.2186 8.93352 20.2177 9.12285C20.2159 10.1021 20.2177 11.0814 20.2168 12.0597Z" fill="white"/>
<path d="M67.1378 5.90113C66.2642 5.48988 65.4831 5.79193 65.1802 6.60387C65.0877 6.85132 65.019 7.10582 65.019 7.37265C65.019 8.45406 65.0155 9.53546 65.0314 10.6169C65.0384 11.1223 65.1282 11.1814 65.6487 11.1496C66.1163 11.1215 66.5848 11.0986 67.0533 11.0774C67.2356 11.0695 67.4231 11.0748 67.4355 11.3249C67.4487 11.5944 67.2532 11.6269 67.0515 11.6322C66.568 11.6446 66.0837 11.6525 65.6002 11.6569C65.2409 11.6604 65.0824 11.804 65.0965 12.1914C65.1978 14.9654 65.2744 17.7394 65.3766 20.5133C65.4091 21.4063 65.8706 21.8572 66.7706 21.9628C66.9309 21.9813 67.0894 22.013 67.2496 22.0324C67.4407 22.0553 67.4821 22.1777 67.476 22.3424C67.4698 22.5123 67.3588 22.5669 67.2162 22.5793C67.085 22.5907 66.9529 22.5907 66.8208 22.5916C65.5747 22.6004 64.3277 22.5978 63.0816 22.6207C62.4529 22.633 61.825 22.6911 61.1971 22.7307C61.0139 22.7422 60.7982 22.8329 60.7498 22.5405C60.7075 22.2834 60.8695 22.2367 61.08 22.1874C61.8285 22.0121 62.0795 21.7277 62.061 20.9633C61.9994 18.4518 61.9122 15.9411 61.8356 13.4296C61.825 13.0791 61.8144 12.7286 61.8074 12.3772C61.7992 11.9986 61.5975 11.8119 61.2024 11.8172C60.9972 11.8198 60.792 11.8224 60.5868 11.8207C60.4433 11.8198 60.3279 11.7819 60.3121 11.6076C60.2953 11.427 60.3737 11.3258 60.5499 11.3099C60.8123 11.2861 61.0756 11.2527 61.338 11.2588C61.6621 11.2668 61.7862 11.1919 61.7818 10.8141C61.7739 10.0577 61.7739 9.29681 61.9465 8.5474C62.3631 6.73772 63.6003 5.5841 65.432 5.2979C66.4544 5.13763 67.4187 5.2706 68.3108 5.8069C69.2249 6.35641 69.5807 7.62627 69.0567 8.43468C68.6824 9.01237 68.0158 9.27744 67.2928 9.13654C66.5258 8.98683 66.0987 8.55797 65.9692 7.80768C65.8565 7.15073 66.1656 6.48322 66.753 6.12216C66.8622 6.05524 66.9749 5.99359 67.1387 5.89937L67.1378 5.90113Z" fill="white"/>
<path d="M87.4595 16.3307C87.4595 17.6314 87.4568 18.9321 87.4595 20.2319C87.463 21.4736 87.876 21.9254 89.1009 22.0469C89.2964 22.0663 89.5492 22.0284 89.5448 22.3384C89.5404 22.6906 89.2603 22.6131 89.0587 22.6087C88.2098 22.5893 87.3608 22.5321 86.5119 22.5347C85.4138 22.5374 84.3156 22.5867 83.2175 22.6096C83.0378 22.6131 82.8045 22.6677 82.7781 22.3815C82.7508 22.0909 82.9648 22.0689 83.1796 22.0381C83.8568 21.9412 84.1439 21.6365 84.1527 20.9162C84.173 19.2069 84.1677 17.4976 84.1703 15.7874C84.1721 14.5889 84.1615 13.3912 84.1756 12.1927C84.18 11.8334 84.0558 11.6802 83.6913 11.7084C83.4729 11.726 83.2518 11.7119 83.0317 11.7048C82.8379 11.6987 82.6777 11.6405 82.6882 11.4037C82.6988 11.1844 82.8573 11.158 83.0308 11.1571C83.28 11.1562 83.5301 11.1439 83.7785 11.1571C84.0594 11.1721 84.1589 11.0532 84.1783 10.7749C84.2293 10.0334 84.2487 9.2884 84.4169 8.55748C85.1892 5.1979 88.7874 4.71795 90.6579 5.76942C91.4707 6.22646 91.9401 7.10092 91.7965 7.91462C91.6574 8.70014 91.0815 9.21883 90.2916 9.26902C89.5096 9.31922 88.7601 8.85601 88.5506 8.19378C88.311 7.43468 88.6386 6.5611 89.2991 6.1657C89.4092 6.09965 89.654 6.11815 89.5923 5.92089C89.5413 5.75885 89.3273 5.77294 89.167 5.76326C88.2062 5.70778 87.6831 6.19212 87.5537 7.26912C87.4119 8.44828 87.4718 9.63272 87.4568 10.8145C87.4533 11.0954 87.5933 11.1606 87.839 11.1571C88.3515 11.1492 88.8649 11.1518 89.3783 11.1571C89.5774 11.1597 89.8248 11.1201 89.8169 11.4371C89.809 11.7497 89.5562 11.7031 89.3616 11.7066C88.8782 11.7154 88.3938 11.7251 87.9103 11.7066C87.5669 11.6934 87.4489 11.8211 87.4524 12.1654C87.4665 13.5533 87.4586 14.942 87.4586 16.3299L87.4595 16.3307Z" fill="white"/>
<path d="M35.4552 11.661C34.7023 11.661 34.1774 11.9358 33.7891 12.4501C33.3303 13.0577 33.0441 13.7305 33.0485 14.5151C33.059 16.4736 33.0449 18.4321 33.0555 20.3907C33.0617 21.5091 33.4773 21.9397 34.6037 22.0427C34.6618 22.048 34.7208 22.0533 34.7789 22.0577C34.9858 22.0709 35.103 22.159 35.0933 22.387C35.0827 22.6336 34.9339 22.6671 34.7357 22.6547C32.8609 22.5385 30.9843 22.6054 29.1086 22.6151C28.9624 22.6151 28.8162 22.6336 28.6709 22.6459C28.4824 22.6627 28.3574 22.6116 28.3486 22.3932C28.3407 22.2003 28.4173 22.1052 28.6119 22.0603C29.5251 21.8472 29.592 21.7776 29.7109 20.8688C29.7505 20.5659 29.7558 20.2577 29.7567 19.9512C29.7602 17.9346 29.7567 15.9171 29.7602 13.9005C29.7602 13.4751 29.7118 13.0542 29.6343 12.6385C29.5392 12.1251 29.2389 11.8002 28.7043 11.728C28.4939 11.6998 28.3292 11.6443 28.3556 11.3828C28.382 11.1194 28.5846 11.1547 28.7528 11.1591C30.0728 11.1961 31.392 11.2005 32.6953 10.9477C32.9719 10.894 33.0405 11.0243 33.0423 11.2489C33.0458 11.6698 33.0432 12.0899 33.0432 12.6429C33.2158 12.4219 33.3074 12.3004 33.4025 12.1824C34.2285 11.16 35.2624 10.6219 36.5991 10.9081C37.6964 11.1432 38.3076 12.3752 37.9588 13.5561C37.6665 14.5486 36.6115 15.0347 35.545 14.6701C34.7437 14.3962 34.3809 13.5508 34.6979 12.6896C34.8405 12.3021 35.0774 11.9763 35.4596 11.661H35.4552Z" fill="white"/>
<path d="M140.353 21.9311C139.765 22.0201 139.184 21.8704 138.6 21.8783C137.604 21.8915 136.609 21.9347 135.613 21.9523C135.443 21.9549 135.207 22.0439 135.146 21.7629C135.087 21.4908 135.26 21.4239 135.483 21.3587C135.778 21.2724 135.804 21.0417 135.679 20.7969C135.486 20.42 135.28 20.0493 135.075 19.6776C134.573 18.7688 134.071 17.8609 133.566 16.9539C133.4 16.6571 133.216 16.3779 132.872 16.2538C132.668 16.1807 132.517 16.1886 132.519 16.4545C132.527 17.8274 132.458 19.203 132.562 20.5732C132.595 21.0188 132.874 21.32 133.349 21.3887C133.421 21.3993 133.493 21.4151 133.566 21.4274C133.758 21.46 133.845 21.5745 133.823 21.7665C133.798 21.9857 133.646 21.9981 133.469 21.9893C131.696 21.9038 129.923 21.9259 128.15 21.9893C127.975 21.9954 127.819 21.9937 127.79 21.7744C127.761 21.556 127.878 21.4671 128.08 21.4169C128.992 21.1897 129.088 21.0796 129.175 20.1681C129.206 19.8494 129.226 19.527 129.226 19.2065C129.229 15.5096 129.231 11.8128 129.225 8.11503C129.225 7.61924 129.192 7.12257 129.147 6.62854C129.082 5.92051 128.787 5.58676 128.122 5.45643C127.927 5.41856 127.78 5.36308 127.791 5.13412C127.802 4.87874 127.988 4.8849 128.17 4.88754C129.225 4.90604 130.28 4.94919 131.331 4.80036C131.606 4.76161 131.885 4.73872 132.156 4.67795C132.424 4.61719 132.505 4.74048 132.511 4.9712C132.514 5.11738 132.515 5.26357 132.515 5.40975C132.515 8.60994 132.515 11.8101 132.515 15.0103C132.515 15.6241 132.608 15.6849 133.174 15.4603C133.228 15.4383 133.291 15.4251 133.333 15.389C134.275 14.5788 135.256 13.7968 135.944 12.7489C136.36 12.1166 136.08 11.4746 135.351 11.2131C135.132 11.1347 134.895 11.1083 134.666 11.0598C134.491 11.0229 134.428 10.9093 134.441 10.7402C134.454 10.5755 134.559 10.5174 134.708 10.5112C134.796 10.5077 134.884 10.5042 134.972 10.5086C136.392 10.5817 137.811 10.6257 139.232 10.5235C139.407 10.5112 139.634 10.4531 139.671 10.7455C139.704 11.0008 139.527 11.0625 139.337 11.1268C138.118 11.5442 137.204 12.3817 136.348 13.2966C135.804 13.8773 135.736 14.5051 136.142 15.1803C137.125 16.8077 138.097 18.4412 139.1 20.0563C139.424 20.5785 139.675 21.1958 140.352 21.4045V21.9311H140.353Z" fill="white"/>
<path d="M102.889 6.28948C105 6.28948 107.112 6.30093 109.223 6.28067C109.657 6.27627 109.792 6.41365 109.752 6.83282C109.608 8.34838 109.63 9.86746 109.658 11.3874C109.661 11.5583 109.692 11.7502 109.429 11.7793C109.171 11.8075 109.057 11.6851 109.007 11.4482C108.79 10.4311 108.519 9.43155 108.003 8.5157C107.378 7.40699 106.413 6.8883 105.15 6.86453C104.818 6.85836 104.719 6.98605 104.72 7.30132C104.729 11.4957 104.723 15.6901 104.737 19.8837C104.74 20.9765 105.05 21.2804 106.13 21.3895C106.319 21.4089 106.507 21.4486 106.696 21.4582C106.907 21.4688 107.09 21.4979 107.063 21.7691C107.037 22.0174 106.85 22.0033 106.667 21.9963C106.243 21.9796 105.818 21.9584 105.394 21.9576C103.283 21.9523 101.172 21.9144 99.0622 21.9954C98.8878 22.0025 98.7311 21.9893 98.7196 21.7621C98.7091 21.5577 98.82 21.4847 99.012 21.4635C99.4039 21.4204 99.7957 21.3693 100.185 21.3032C100.65 21.2249 100.896 20.9114 100.978 20.4746C101.036 20.1752 101.074 19.8669 101.074 19.5623C101.081 15.4999 101.074 11.4367 101.088 7.37441C101.09 6.95963 100.953 6.85132 100.557 6.86189C99.3202 6.89623 98.4 7.43165 97.7914 8.50249C97.3168 9.33732 97.0429 10.2444 96.8245 11.1717C96.7981 11.2853 96.7664 11.398 96.7479 11.5133C96.7083 11.767 96.533 11.7978 96.3252 11.7775C96.0786 11.7538 96.1279 11.5759 96.135 11.4156C96.2028 9.85161 96.1438 8.28938 96.0372 6.72979C96.0117 6.35729 96.1323 6.28155 96.4687 6.28243C98.6095 6.293 100.75 6.28772 102.89 6.28772L102.889 6.28948Z" fill="white"/>
<path d="M116.005 20.6064C115.833 20.6416 115.791 20.7447 115.728 20.8222C114.769 22.0128 113.477 22.3078 112.051 22.0929C110.652 21.8824 109.858 20.7852 109.931 19.37C109.999 18.0403 110.741 17.209 111.891 16.7C112.828 16.2852 113.8 15.9514 114.751 15.5648C115.783 15.1457 115.956 14.8824 115.949 13.7886C115.946 13.2056 115.984 12.6218 115.874 12.0397C115.714 11.1934 115.194 10.7408 114.325 10.7232C113.881 10.7144 113.448 10.7487 113.04 10.9486C112.774 11.0789 112.741 11.1811 113.025 11.3449C113.731 11.7517 114.064 12.3664 113.932 13.1801C113.792 14.0326 113.043 14.5953 112.119 14.5785C111.277 14.5627 110.657 14.029 110.524 13.1722C110.407 12.4237 110.626 11.7905 111.227 11.2982C112.233 10.4748 113.438 10.2679 114.679 10.1798C115.444 10.1252 116.203 10.1913 116.948 10.3815C118.304 10.7267 119.061 11.6487 119.177 13.0313C119.24 13.7904 119.249 14.5486 119.249 15.3077C119.249 17.0179 119.245 18.728 119.252 20.4382C119.256 21.2431 119.508 21.3955 120.211 21.03C120.361 20.9525 120.487 20.8512 120.615 21.0617C120.738 21.266 120.648 21.3884 120.481 21.495C119.445 22.1563 118.328 22.3078 117.151 21.9925C116.47 21.8093 116.138 21.2907 116.005 20.6064ZM115.947 15.5208C115.353 15.9461 114.832 16.3204 114.31 16.6912C113.155 17.511 113.002 18.6505 113.305 19.7892C113.455 20.3554 114.015 20.6971 114.582 20.646C115.171 20.5932 115.931 20.0675 115.939 19.6351C115.963 18.2842 115.947 16.9333 115.947 15.5208Z" fill="white"/>
<path d="M125.665 12.7201C125.665 15.1031 125.665 17.486 125.666 19.8681C125.666 20.0874 125.666 20.3084 125.696 20.5242C125.764 21.0261 126.047 21.3044 126.544 21.389C126.631 21.4039 126.718 21.4171 126.805 21.4321C127.001 21.4656 127.078 21.5871 127.054 21.7764C127.031 21.9658 126.9 22.0028 126.736 21.9948C124.904 21.9059 123.071 21.9253 121.24 21.9957C121.07 22.0019 120.949 21.9543 120.933 21.7659C120.92 21.6029 120.967 21.4761 121.15 21.44C121.236 21.4233 121.322 21.4074 121.409 21.3925C121.948 21.2991 122.233 21.0068 122.289 20.4599C122.316 20.1984 122.32 19.9342 122.32 19.6717C122.322 15.6226 122.323 11.5735 122.318 7.52352C122.318 7.1017 122.337 6.67636 122.209 6.26247C122.071 5.81599 121.796 5.52627 121.321 5.46462C121.097 5.43556 120.901 5.38977 120.941 5.10357C120.982 4.81648 121.217 4.88869 121.392 4.89398C122.698 4.93096 124.002 4.93449 125.291 4.68351C125.681 4.60777 125.665 4.84907 125.665 5.08948C125.667 6.58037 125.666 8.07127 125.666 9.56305C125.666 10.6154 125.666 11.6677 125.666 12.721H125.665V12.7201Z" fill="white"/>
</svg>
